<?xml version="1.0" encoding="utf-8"?>

<!DOCTYPE svg PUBLIC "-//W3C//DTD SVG 1.1//EN" "http://www.w3.org/Graphics/SVG/1.1/DTD/svg11.dtd">
<svg version="1.1" id="Layer_1" xmlns="http://www.w3.org/2000/svg" xmlns:xlink="http://www.w3.org/1999/xlink" x="0px" y="0px"
	 viewBox="0 0 527.816 1646.193" enable-background="new 0 0 527.816 1646.193" xml:space="preserve" color="white" fill="currentColor">
<g>
	<path d="M254.331,1275.282c-78.589,103.618-145.01,203.691-145.141,310.061c-0.062,50.426-76.283,50.26-76.22-0.092
		c0.167-136.08,84.418-256.593,173.203-372.508C222.101,1233.463,238.427,1254.446,254.331,1275.282z M254.331,370.903
		C175.742,267.286,109.321,167.212,109.19,60.842c-0.062-50.428-76.283-50.258-76.22,0.094
		c0.167,136.079,84.418,256.592,173.203,372.507C222.12,412.699,238.44,391.722,254.331,370.903z M273.466,521.116
		c185.401,246.112,185.433,357.794,0,603.952c15.809,20.826,31.901,41.539,48.155,62.628c222.906-292.379,223.535-436.003,0-729.208
		C305.533,479.362,289.302,500.253,273.466,521.116z M115.287,823.14C115.6,569.504,494.491,349.306,494.846,60.936
		c0.061-50.414-76.16-50.447-76.22-0.094C418.315,314.523,39.421,534.595,39.067,823.14
		c0.354,288.36,379.248,508.575,379.559,762.203c0.061,50.525,76.281,50.182,76.22-0.092
		C494.491,1296.924,115.6,1076.608,115.287,823.14z"/>
	<path d="M124.938,75.989h277.941c0.379-5.951,0.469-10.153,0.505-15.244H124.431C124.445,62.654,124.435,68.162,124.938,75.989z"/>
	<path d="M131.945,121.578h263.962c1.214-5.075,2.281-10.156,3.211-15.244H128.722C129.654,111.425,130.731,116.507,131.945,121.578
		z"/>
	<path d="M146.418,167.167h234.98c1.997-5.078,3.871-10.159,5.621-15.244H140.805C142.555,157.015,144.431,162.097,146.418,167.167z
		"/>
	<path d="M167.335,212.755h193.081c2.657-5.081,5.215-10.162,7.667-15.244H159.694C162.145,202.605,164.692,207.687,167.335,212.755
		z"/>
	<path d="M193.595,258.344h140.519c3.184-5.084,6.292-10.165,9.313-15.244H184.293C187.32,248.195,190.423,253.277,193.595,258.344z
		"/>
	<path d="M224.009,303.932h79.718c3.572-5.087,7.089-10.168,10.54-15.244H213.455C216.925,293.786,220.446,298.867,224.009,303.932z
		"/>
	<path d="M284.952,562.22h-42.046c-3.685,5.088-7.32,10.169-10.901,15.244h63.867C292.254,572.344,288.61,567.261,284.952,562.22z"
		/>
	<path d="M316.62,607.808H211.265c-3.353,5.085-6.635,10.166-9.842,15.244H326.45C323.229,617.941,319.947,612.86,316.62,607.808z"
		/>
	<path d="M344.593,653.397H183.218c-2.88,5.082-5.671,10.163-8.362,15.244h178.06C350.225,663.537,347.447,658.455,344.593,653.397z
		"/>
	<path d="M367.697,698.986H160.013c-2.27,5.079-4.436,10.16-6.476,15.244h220.614C372.11,709.131,369.953,704.05,367.697,698.986z"
		/>
	<path d="M384.845,744.574h-242c-1.534,5.076-2.941,10.157-4.205,15.244h250.428C387.794,754.725,386.382,749.643,384.845,744.574z"
		/>
	<path d="M394.972,790.163H132.807c-0.683,5.073-1.22,10.154-1.598,15.244h265.382C396.206,800.319,395.667,795.237,394.972,790.163
		z"/>
	<path d="M396.912,835.751H130.884c0.272,5.09,0.697,10.171,1.279,15.244h263.434C396.193,845.921,396.631,840.839,396.912,835.751z
		"/>
	<path d="M390.265,881.34H137.421c1.171,5.087,2.481,10.168,3.926,15.244h244.961C387.759,891.514,389.082,886.433,390.265,881.34z"
		/>
	<path d="M376.108,926.928H151.542c1.961,5.084,4.045,10.165,6.241,15.244h212.103C372.068,937.107,374.145,932.026,376.108,926.928
		z"/>
	<path d="M355.521,972.517H172.208c2.626,5.081,5.358,10.162,8.178,15.244h167.006C350.186,982.703,352.897,977.621,355.521,972.517
		z"/>
	<path d="M329.582,1018.106H198.265c3.157,5.078,6.394,10.159,9.702,15.244h111.936
		C323.184,1028.299,326.415,1023.217,329.582,1018.106z"/>
	<path d="M299.404,1063.694H228.47c3.547,5.075,7.152,10.156,10.807,15.244h49.305
		C292.213,1073.896,295.823,1068.813,299.404,1063.694z"/>
	<path d="M300.181,1337.226h-72.619c-3.598,5.065-7.154,10.147-10.665,15.244h93.933
		C307.34,1347.394,303.787,1342.313,300.181,1337.226z"/>
	<path d="M330.942,1382.815H196.766c-3.222,5.067-6.377,10.148-9.459,15.244H340.41
		C337.334,1392.981,334.176,1387.899,330.942,1382.815z"/>
	<path d="M357.755,1428.403H169.988c-2.708,5.068-5.322,10.15-7.842,15.244h203.475
		C363.101,1438.565,360.478,1433.484,357.755,1428.403z"/>
	<path d="M379.384,1473.991H148.431c-2.066,5.07-4.026,10.151-5.858,15.244h242.675
		C383.413,1484.15,381.46,1479.069,379.384,1473.991z"/>
	<path d="M394.656,1519.58H133.193c-1.305,5.071-2.474,10.152-3.503,15.244h268.463
		C397.127,1529.737,395.962,1524.656,394.656,1519.58z"/>
	<path d="M125.313,1565.17c-0.429,5.072-0.709,10.153-0.822,15.244h278.831c-0.111-5.091-0.39-10.171-0.817-15.244H125.313z"/>
</g>
</svg>
